<svg width="118" height="24" viewBox="0 0 118 24" fill="none" xmlns="http://www.w3.org/2000/svg">
<g clip-path="url(#clip0_50_541)">
<path d="M27.3592 7.81258L27.5337 5.60803H19.4169L18.4184 18.248H21.1651L21.5749 12.9233H26.9548L27.1292 10.7178H21.7539L21.9856 7.81258H27.3592Z" fill="#C22546"/>
<path d="M29.4045 5.60803H32.0976L31.0991 18.248H28.406L29.4045 5.60803Z" fill="#C22546"/>
<path d="M42.1674 9.44598L41.4722 18.2498H38.8508L38.9402 17.1201C38.6307 17.5266 38.2388 17.8405 37.7628 18.0618C37.2868 18.2831 36.758 18.3937 36.1756 18.3937C35.2245 18.3937 34.4989 18.1248 33.9997 17.5869C33.5004 17.049 33.2508 16.2665 33.2508 15.2384C33.2508 14.9875 33.2571 14.7968 33.2687 14.6646L33.6785 9.44688H36.3715L35.9617 14.5027C35.9143 15.0882 36.0029 15.5308 36.2293 15.8294C36.4547 16.128 36.8055 16.2773 37.2814 16.2773C37.8048 16.2773 38.2236 16.101 38.5385 15.7484C38.8534 15.3958 39.0351 14.9209 39.0825 14.3228L39.4753 9.44598H42.1683H42.1674Z" fill="#C22546"/>
<path d="M47.9615 14.7878L48.2281 11.4707H49.8941L50.0542 9.44421H48.3892L48.5851 6.86279H45.8921L45.6961 9.44421H44.0374L43.8772 11.4707H45.5351L45.2685 14.7878C45.2559 14.8949 45.2506 15.0568 45.2506 15.2717C45.2506 16.2998 45.553 17.0769 46.1596 17.6022C46.7662 18.1284 47.6699 18.391 48.8705 18.391C49.113 18.391 49.3608 18.3694 49.3608 18.3694C49.5675 18.3506 49.7447 18.3245 49.886 18.2984L50.039 16.3619C49.7751 16.388 49.546 16.4015 49.3519 16.4015C48.3418 16.4015 47.8774 15.8636 47.9615 14.7878Z" fill="#C22546"/>
<path d="M66.5401 10.314C67.2415 11.0371 67.5922 12.0796 67.5922 13.4423C67.5922 13.7292 67.5743 14.0341 67.5386 14.357H61.8491C61.9565 15.6963 62.6875 16.3655 64.0429 16.3655C64.935 16.3655 65.7849 16.0785 66.5937 15.5047L67.1646 17.3153C66.7843 17.6499 66.2967 17.9134 65.7017 18.1041C65.1068 18.2948 64.4894 18.391 63.847 18.391C62.9308 18.391 62.1283 18.212 61.4394 17.8532C60.7495 17.4943 60.2145 16.9897 59.8343 16.3385C59.454 15.6873 59.2634 14.9308 59.2634 14.0701C59.2634 13.1256 59.4567 12.2865 59.8432 11.5507C60.2297 10.8159 60.7585 10.2447 61.4304 9.83816C62.1023 9.43161 62.8601 9.22833 63.7047 9.22833C64.8938 9.22833 65.8386 9.58991 66.5401 10.3131V10.314ZM61.9028 13.0123H65.3626C65.3626 12.3665 65.2231 11.8862 64.9439 11.5687C64.6648 11.2521 64.2809 11.0938 63.7933 11.0938C62.7349 11.0938 62.105 11.7333 61.9028 13.0123Z" fill="#C22546"/>
<path d="M75.2796 9.24724C73.8884 9.35517 72.8836 9.82738 72.2654 10.6639L72.3548 9.4622H69.7861L69.0909 18.248H71.784L72.141 13.6581C72.2 13.0006 72.3844 12.5167 72.6939 12.2055C73.0026 11.8952 73.5135 11.7036 74.2274 11.6317L75.7162 11.4707L75.8943 9.21216L75.2796 9.24724Z" fill="#C22546"/>
<path d="M84.3117 10.063C84.9004 10.6189 85.1947 11.459 85.1947 12.5824C85.1947 12.845 85.1885 13.0429 85.1768 13.1742L84.7841 18.248H82.2332L82.3227 17.0463C82.0964 17.4763 81.7814 17.8082 81.377 18.0411C80.9726 18.2741 80.5029 18.391 79.9679 18.391C79.3854 18.391 78.862 18.2777 78.3985 18.0501C77.9351 17.8235 77.5718 17.5123 77.3106 17.1174C77.0493 16.7234 76.9187 16.2809 76.9187 15.7907C76.9187 15.1215 77.0878 14.5837 77.4269 14.1771C77.766 13.7706 78.3037 13.4755 79.0409 13.2893C79.7782 13.1041 80.7588 13.0114 81.9836 13.0114H82.626L82.6439 12.7785C82.6797 12.2523 82.575 11.8673 82.3317 11.6218C82.0874 11.3771 81.6866 11.2539 81.1274 11.2539C80.6872 11.2539 80.2148 11.3321 79.7093 11.4868C79.2038 11.6425 78.7251 11.8574 78.2733 12.1327L77.6846 10.3221C78.1722 9.99916 78.7788 9.73652 79.5035 9.53325C80.2282 9.32997 80.9359 9.22833 81.6257 9.22833C82.8264 9.22833 83.7211 9.50626 84.3099 10.0621L84.3117 10.063ZM81.9398 15.9976C82.2664 15.645 82.4542 15.1881 82.5017 14.6259L82.5196 14.321H82.0382C81.1104 14.321 80.4626 14.411 80.094 14.5899C79.7254 14.7689 79.5411 15.0739 79.5411 15.5047C79.5411 15.8159 79.6484 16.0632 79.8623 16.2485C80.0761 16.4338 80.3615 16.5265 80.7185 16.5265C81.2061 16.5265 81.6132 16.3502 81.9398 15.9976Z" fill="#C22546"/>
<path d="M94.9425 10.045C95.4418 10.5892 95.6914 11.387 95.6914 12.4385C95.6914 12.6894 95.6851 12.881 95.6735 13.0123L95.2637 18.248H92.5707L92.9804 13.1203C93.0279 12.5347 92.9357 12.0922 92.704 11.7936C92.4723 11.495 92.1126 11.3457 91.625 11.3457C91.0658 11.3457 90.6265 11.5219 90.3053 11.8745C89.9841 12.2271 89.7998 12.7083 89.7523 13.3181L89.3596 18.2489H86.6665L87.3617 9.44512H89.9832L89.8937 10.4849C90.2024 10.09 90.6014 9.78241 91.089 9.56115C91.5767 9.33988 92.1233 9.22925 92.7299 9.22925C93.7052 9.22925 94.4424 9.50088 94.9416 10.045H94.9425Z" fill="#C22546"/>
<path d="M107.441 5.60806L106.442 18.248H103.785L103.874 17.1543C103.589 17.5366 103.214 17.8388 102.751 18.06C102.287 18.2813 101.782 18.3919 101.235 18.3919C100.498 18.3919 99.8465 18.2219 99.2819 17.881C98.7173 17.5402 98.2798 17.0509 97.9712 16.4104C97.6616 15.7709 97.5077 15.0208 97.5077 14.16C97.5077 13.2039 97.6831 12.3521 98.0338 11.6047C98.3845 10.8581 98.8748 10.2753 99.5056 9.85616C100.135 9.43792 100.861 9.22834 101.681 9.22834C102.871 9.22834 103.762 9.67087 104.357 10.555L104.749 5.60626H107.443L107.441 5.60806ZM103.615 15.6126C103.977 15.1224 104.159 14.4712 104.159 13.6581C104.159 12.845 103.993 12.2892 103.66 11.8826C103.327 11.4761 102.851 11.2728 102.233 11.2728C101.614 11.2728 101.088 11.5147 100.726 11.9986C100.364 12.4826 100.182 13.149 100.182 13.9981C100.182 14.751 100.351 15.3311 100.69 15.7377C101.029 16.1442 101.513 16.3475 102.144 16.3475C102.775 16.3475 103.253 16.1028 103.616 15.6126H103.615Z" fill="#C22546"/>
<path d="M110.866 17.8541C110.176 17.4952 109.644 16.9906 109.27 16.3394C108.895 15.6882 108.708 14.9264 108.708 14.053C108.708 13.0735 108.901 12.2181 109.287 11.4896C109.674 10.761 110.221 10.2016 110.928 9.81301C111.636 9.42444 112.459 9.23016 113.399 9.23016C114.338 9.23016 115.152 9.40915 115.842 9.76803C116.532 10.1269 117.064 10.6315 117.438 11.2827C117.813 11.9348 118 12.6966 118 13.5691C118 14.5612 117.807 15.4193 117.42 16.1424C117.034 16.8656 116.487 17.4214 115.779 17.81C115.072 18.1986 114.249 18.3929 113.309 18.3929C112.37 18.3929 111.555 18.2139 110.866 17.855V17.8541ZM114.817 15.5587C115.156 15.0325 115.325 14.3453 115.325 13.4971C115.325 12.0149 114.694 11.2737 113.434 11.2737C112.745 11.2737 112.23 11.5364 111.892 12.0625C111.553 12.5887 111.384 13.2696 111.384 14.107C111.384 15.601 112.014 16.3484 113.274 16.3484C113.964 16.3484 114.478 16.0858 114.817 15.5596V15.5587Z" fill="#C22546"/>
<path d="M55.8609 14.7878L56.1276 11.4707H57.7935L57.9537 9.44421H56.2886L56.4845 6.86279H53.7915L53.5955 9.44421H51.9368L51.7766 11.4707H53.4345L53.1679 14.7878C53.1554 14.8949 53.15 15.0568 53.15 15.2717C53.15 16.2998 53.4524 17.0769 54.059 17.6022C54.6656 18.1284 55.5693 18.391 56.77 18.391C57.0124 18.391 57.2603 18.3694 57.2603 18.3694C57.4669 18.3506 57.6441 18.3245 57.7854 18.2984L57.9384 16.3619C57.6745 16.388 57.4455 16.4015 57.2513 16.4015C56.2412 16.4015 55.7768 15.8636 55.8609 14.7878Z" fill="#C22546"/>
<path d="M0.846373 6.16303L14.3672 0L14.3439 5.31934L0.00445557 11.8556L0.0241391 7.43934C0.0259285 6.94015 0.394547 6.3681 0.847268 6.16213L0.846373 6.16303Z" fill="#C22546"/>
<path d="M0.0232623 12.8468L14.3627 6.31055L14.343 10.7772C14.3412 11.2485 13.9932 11.7882 13.5664 11.9825L0 18.1662L0.0232623 12.8468Z" fill="#C22546"/>
<path d="M0.0214729 19.1853L6.4893 16.2369L6.4714 20.2673C6.46961 20.7008 6.1502 21.1964 5.75743 21.3754L0 24L0.0205782 19.1853H0.0214729Z" fill="#C22546"/>
<path d="M12.1018 18.2121C13.3292 18.2121 14.3242 17.2645 14.3242 16.0957C14.3242 14.9268 13.3292 13.9792 12.1018 13.9792C10.8744 13.9792 9.87933 14.9268 9.87933 16.0957C9.87933 17.2645 10.8744 18.2121 12.1018 18.2121Z" fill="#C22546"/>
</g>
<defs>
<clipPath id="clip0_50_541">
<rect width="118" height="24" fill="white"/>
</clipPath>
</defs>
</svg>
