<svg width="10" height="11" viewBox="0 0 10 11" fill="none" xmlns="http://www.w3.org/2000/svg">
<path d="M4.99847 10.182C4.10714 10.182 3.34647 10.021 2.71647 9.699C2.09114 9.37233 1.6128 8.901 1.28147 8.285C0.954802 7.669 0.791469 6.92467 0.791469 6.052V4.96C0.791469 4.092 0.954802 3.35467 1.28147 2.748C1.6128 2.13667 2.09114 1.67233 2.71647 1.355C3.34647 1.033 4.10714 0.872 4.99847 0.872C5.8898 0.872 6.64814 1.033 7.27347 1.355C7.90347 1.67233 8.3818 2.13667 8.70847 2.748C9.0398 3.35467 9.20547 4.092 9.20547 4.96V6.052C9.20547 6.92467 9.0398 7.669 8.70847 8.285C8.3818 8.901 7.90347 9.37233 7.27347 9.699C6.64814 10.021 5.8898 10.182 4.99847 10.182ZM5.27847 7.823C4.62047 7.823 4.1328 7.648 3.81547 7.298C3.49814 6.948 3.33947 6.44867 3.33947 5.8V5.212C3.33947 4.568 3.49814 4.07333 3.81547 3.728C4.13747 3.378 4.62514 3.203 5.27847 3.203C5.5678 3.203 5.82214 3.24033 6.04147 3.315C6.2608 3.38967 6.4358 3.47367 6.56647 3.567L6.64347 4.372C6.48947 4.26467 6.31447 4.17367 6.11847 4.099C5.92714 4.02433 5.69847 3.987 5.43247 3.987C5.0358 3.987 4.74414 4.092 4.55747 4.302C4.3708 4.50733 4.27747 4.80367 4.27747 5.191V5.8C4.27747 6.192 4.37547 6.493 4.57147 6.703C4.76747 6.913 5.0638 7.018 5.46047 7.018C5.72647 7.018 5.95747 6.98067 6.15347 6.906C6.34947 6.83133 6.52447 6.74033 6.67847 6.633L6.60847 7.445C6.46847 7.543 6.28647 7.63167 6.06247 7.711C5.84314 7.78567 5.5818 7.823 5.27847 7.823ZM4.99847 9.405C6.01114 9.405 6.81147 9.12033 7.39947 8.551C7.98747 7.98167 8.28147 7.172 8.28147 6.122V4.89C8.28147 3.84933 7.98747 3.049 7.39947 2.489C6.81147 1.929 6.01114 1.649 4.99847 1.649C3.9858 1.649 3.18547 1.929 2.59747 2.489C2.00947 3.049 1.71547 3.84933 1.71547 4.89V6.122C1.71547 7.172 2.00947 7.98167 2.59747 8.551C3.18547 9.12033 3.9858 9.405 4.99847 9.405Z" fill="#737077"/>
</svg>
