<svg width="24" height="18" viewBox="0 0 24 18" fill="none" xmlns="http://www.w3.org/2000/svg">
<mask id="path-1-inside-1_319_133" fill="white">
<path d="M22.6913 1.56973C21.9878 0.895151 21.0394 0.511508 20.0473 0.500255C19.0552 0.489001 18.0977 0.851022 17.3779 1.50946C17.338 1.54339 17.3061 1.58513 17.2842 1.63189C17.2623 1.67866 17.251 1.72938 17.251 1.78068C17.251 1.83199 17.2623 1.88271 17.2842 1.92948C17.3061 1.97624 17.338 2.01798 17.3779 2.05191L17.8155 2.5341C17.8762 2.60223 17.9611 2.64615 18.0535 2.65729C18.1459 2.66843 18.2394 2.646 18.3156 2.59437C18.7549 2.22671 19.3277 2.04238 19.908 2.08194C20.4883 2.1215 21.0285 2.38171 21.4098 2.80533C21.7911 3.22894 21.9823 3.78126 21.9413 4.34078C21.9002 4.9003 21.6304 5.42118 21.191 5.78885C18.1906 8.68196 14.1274 0.545086 5.00104 4.7642C4.8443 4.8342 4.7043 4.93476 4.58987 5.05953C4.47545 5.18431 4.38908 5.3306 4.33623 5.48916C4.28337 5.64773 4.26516 5.81514 4.28275 5.98083C4.30035 6.14652 4.35336 6.3069 4.43845 6.45185L6.00119 9.04359C6.17013 9.312 6.44101 9.50626 6.75621 9.58505C7.07141 9.66385 7.40605 9.62096 7.68896 9.46551H7.75146L8.43907 9.10387C9.21307 8.6422 9.94498 8.11795 10.6269 7.53677C10.6957 7.47746 10.7847 7.44468 10.8769 7.44468C10.9692 7.44468 11.0582 7.47746 11.127 7.53677C11.1669 7.5707 11.1989 7.61244 11.2208 7.6592C11.2426 7.70597 11.254 7.75669 11.254 7.808C11.254 7.8593 11.2426 7.91002 11.2208 7.95679C11.1989 8.00355 11.1669 8.04529 11.127 8.07922C10.4091 8.70638 9.63514 9.27112 8.81413 9.76687L8.12652 10.1285C7.84024 10.2843 7.51757 10.3672 7.18888 10.3696C6.83471 10.3727 6.48606 10.285 6.17854 10.1156C5.87103 9.94612 5.61568 9.701 5.43861 9.40523L3.87587 6.7713C1.06293 9.18222 -0.687337 12.4972 0.258434 17.2142C0.276733 17.2965 0.324195 17.37 0.392651 17.4221C0.461107 17.4743 0.546273 17.5018 0.633492 17.4999H2.28812C2.3797 17.4995 2.46796 17.4668 2.53624 17.4079C2.60453 17.3491 2.64812 17.2682 2.6588 17.1805C2.76661 16.6281 3.07118 16.1294 3.51986 15.7706C3.96854 15.4118 4.53314 15.2154 5.11606 15.2154C5.69898 15.2154 6.26357 15.4118 6.71226 15.7706C7.16094 16.1294 7.46551 16.6281 7.57331 17.1805C7.58664 17.2636 7.62965 17.3397 7.69492 17.3956C7.76019 17.4515 7.84363 17.4837 7.93087 17.4867H9.56862C9.65582 17.4834 9.73912 17.4509 9.80416 17.3948C9.86919 17.3387 9.9119 17.2625 9.92493 17.1793C10.0334 16.6276 10.3382 16.1297 10.7867 15.7715C11.2351 15.4134 11.7992 15.2174 12.3816 15.2174C12.9639 15.2174 13.528 15.4134 13.9765 15.7715C14.4249 16.1297 14.7297 16.6276 14.8382 17.1793C14.8525 17.2614 14.8958 17.3362 14.9607 17.3911C15.0256 17.446 15.1082 17.4776 15.1945 17.4806H16.8197C16.9141 17.4777 17.0038 17.4406 17.071 17.3767C17.1382 17.3128 17.1779 17.2268 17.1823 17.1359C17.2448 14.9058 17.8074 12.3743 19.6014 11.1086C25.7274 6.70861 24.1021 2.91141 22.6894 1.56732L22.6913 1.56973ZM16.4403 8.19977L15.2526 7.65731C15.2447 7.53183 15.2708 7.40652 15.3284 7.29373C15.386 7.18095 15.4731 7.08459 15.5811 7.01416C15.6891 6.94372 15.8143 6.90165 15.9443 6.89209C16.0743 6.88252 16.2046 6.9058 16.3225 6.95961C16.4403 7.01343 16.5415 7.09594 16.6162 7.19899C16.6909 7.30204 16.7364 7.42208 16.7483 7.54727C16.7602 7.67247 16.7381 7.79849 16.6841 7.91291C16.63 8.02733 16.546 8.1262 16.4403 8.19977Z"/>
</mask>
<path d="M22.6913 1.56973L21.9991 2.2915L23.4806 0.955714L22.6913 1.56973ZM17.3779 1.50946L18.0258 2.27126L18.0396 2.25952L18.0529 2.24728L17.3779 1.50946ZM17.3779 2.05191L18.1185 1.3799L18.075 1.33201L18.0258 1.29011L17.3779 2.05191ZM17.8155 2.5341L18.5622 1.86885L18.5561 1.86208L17.8155 2.5341ZM18.3156 2.59437L18.8764 3.42234L18.9184 3.39385L18.9574 3.36126L18.3156 2.59437ZM21.191 5.78885L20.5493 5.02196L20.5223 5.04455L20.4969 5.06898L21.191 5.78885ZM5.00104 4.7642L5.40884 5.67737L5.42067 5.6719L5.00104 4.7642ZM4.43845 6.45185L3.57601 6.95814L3.58208 6.96821L4.43845 6.45185ZM6.00119 9.04359L5.14483 9.55996L5.14978 9.56817L5.15488 9.57628L6.00119 9.04359ZM7.68896 9.46551V8.46551H7.43231L7.20738 8.5891L7.68896 9.46551ZM7.75146 9.46551V10.4655H7.9984L8.21695 10.3506L7.75146 9.46551ZM8.43907 9.10387L8.90456 9.98892L8.9283 9.97644L8.95134 9.9627L8.43907 9.10387ZM10.6269 7.53677L11.2756 8.29787L11.28 8.29404L10.6269 7.53677ZM11.127 7.53677L10.4739 8.29406L10.4792 8.29857L11.127 7.53677ZM11.127 8.07922L10.4791 7.31735L10.4691 7.32613L11.127 8.07922ZM8.81413 9.76687L9.27961 10.6519L9.30575 10.6382L9.33103 10.6229L8.81413 9.76687ZM8.12652 10.1285L7.66099 9.24337L7.64864 9.25009L8.12652 10.1285ZM7.18888 10.3696L7.18163 9.36963L7.18025 9.36964L7.18888 10.3696ZM5.43861 9.40523L4.57858 9.9155L4.58063 9.91891L5.43861 9.40523ZM3.87587 6.7713L4.73589 6.26104L4.12866 5.23759L3.2251 6.01202L3.87587 6.7713ZM0.258434 17.2142L-0.722051 17.4108L-0.719983 17.4211L-0.717699 17.4314L0.258434 17.2142ZM0.633492 17.4999V16.4999H0.622766L0.612042 16.5001L0.633492 17.4999ZM2.28812 17.4999V18.4999L2.29279 18.4999L2.28812 17.4999ZM2.6588 17.1805L1.67732 16.9889L1.67047 17.024L1.66614 17.0595L2.6588 17.1805ZM7.57331 17.1805L8.56071 17.0222L8.55803 17.0055L8.55479 16.9889L7.57331 17.1805ZM7.93087 17.4867L7.89718 18.4861L7.91402 18.4867H7.93087V17.4867ZM9.56862 17.4867V18.4867H9.58733L9.60604 18.486L9.56862 17.4867ZM9.92493 17.1793L8.94371 16.9863L8.93996 17.0054L8.93696 17.0246L9.92493 17.1793ZM14.8382 17.1793L15.8233 17.0073L15.8215 16.9968L15.8194 16.9863L14.8382 17.1793ZM15.1945 17.4806L15.1597 18.48L15.1771 18.4806H15.1945V17.4806ZM16.8197 17.4806V18.4806H16.8353L16.8509 18.4801L16.8197 17.4806ZM17.1823 17.1359L18.1811 17.1837L18.1816 17.1738L18.1819 17.1639L17.1823 17.1359ZM19.6014 11.1086L20.1779 11.9257L20.1848 11.9208L19.6014 11.1086ZM22.6894 1.56732L23.3787 0.842833L21.9001 2.18133L22.6894 1.56732ZM16.4403 8.19977L16.0249 9.10938L16.5435 9.34626L17.0115 9.0206L16.4403 8.19977ZM15.2526 7.65731L14.2546 7.72046L14.2924 8.31813L14.8372 8.56693L15.2526 7.65731ZM23.3834 0.847957C22.493 -0.00592315 21.2997 -0.485603 20.0586 -0.499681L20.0359 1.50019C20.779 1.50862 21.4827 1.79622 21.9991 2.2915L23.3834 0.847957ZM20.0586 -0.499681C18.8176 -0.513759 17.6134 -0.061314 16.703 0.771627L18.0529 2.24728C18.5819 1.76336 19.2928 1.49176 20.0359 1.50019L20.0586 -0.499681ZM16.7301 0.747653C16.5827 0.873021 16.4621 1.02942 16.3785 1.20789L18.1898 2.05589C18.1501 2.14084 18.0934 2.21376 18.0258 2.27126L16.7301 0.747653ZM16.3785 1.20789C16.2949 1.38649 16.251 1.58188 16.251 1.78068H18.251C18.251 1.87688 18.2297 1.97082 18.1898 2.05589L16.3785 1.20789ZM16.251 1.78068C16.251 1.97949 16.2949 2.17487 16.3785 2.35348L18.1898 1.50548C18.2297 1.59055 18.251 1.68449 18.251 1.78068H16.251ZM16.3785 2.35348C16.4621 2.53195 16.5827 2.68835 16.7301 2.81372L18.0258 1.29011C18.0934 1.3476 18.1501 1.42053 18.1898 1.50548L16.3785 2.35348ZM16.6374 2.72393L17.075 3.20611L18.5561 1.86208L18.1185 1.3799L16.6374 2.72393ZM17.0689 3.19932C17.2953 3.45342 17.6049 3.61046 17.9338 3.6501L18.1732 1.66448C18.3172 1.68184 18.4572 1.75105 18.5622 1.86888L17.0689 3.19932ZM17.9338 3.6501C18.2626 3.68973 18.5981 3.61078 18.8764 3.42234L17.7548 1.76641C17.8806 1.68122 18.0293 1.64714 18.1732 1.66448L17.9338 3.6501ZM18.9574 3.36126C19.1954 3.16205 19.5129 3.05732 19.84 3.07963L19.976 1.08426C19.1426 1.02744 18.3144 1.29136 17.6738 1.82749L18.9574 3.36126ZM19.84 3.07963C20.167 3.10192 20.463 3.24822 20.6666 3.47435L22.1531 2.13631C21.594 1.51521 20.8096 1.14109 19.976 1.08426L19.84 3.07963ZM20.6666 3.47435C20.8689 3.69915 20.9647 3.98464 20.9439 4.26764L22.9386 4.41391C22.9999 3.57788 22.7133 2.75874 22.1531 2.13631L20.6666 3.47435ZM20.9439 4.26764C20.9232 4.55098 20.786 4.82379 20.5493 5.02196L21.8328 6.55573C22.4747 6.01857 22.8773 5.24961 22.9386 4.41391L20.9439 4.26764ZM20.4969 5.06898C20.2577 5.29969 20.0522 5.38452 19.8594 5.41355C19.6453 5.44578 19.3653 5.42054 18.9722 5.29994C18.5763 5.17847 18.1289 4.98093 17.5886 4.72187C17.071 4.47365 16.4504 4.15992 15.8054 3.86815C14.4895 3.2729 12.9096 2.69028 11.0314 2.55384C9.14272 2.41663 7.00882 2.73432 4.58141 3.85651L5.42067 5.6719C7.55646 4.68453 9.35286 4.43716 10.8865 4.54858C12.4308 4.66076 13.7654 5.14045 14.9811 5.69039C15.6019 5.97122 16.1515 6.2508 16.7239 6.52526C17.2736 6.78888 17.8361 7.04339 18.3856 7.21198C18.938 7.38145 19.539 7.48429 20.1571 7.39127C20.7964 7.29504 21.3743 7.00128 21.8851 6.50871L20.4969 5.06898ZM4.59328 3.85111C4.31352 3.97605 4.06099 4.1567 3.85286 4.38366L5.32689 5.73541C5.34761 5.71281 5.37507 5.69235 5.4088 5.67729L4.59328 3.85111ZM3.85286 4.38366C3.64464 4.61072 3.48547 4.87916 3.38755 5.17292L5.2849 5.80541C5.2927 5.78203 5.30627 5.7579 5.32689 5.73541L3.85286 4.38366ZM3.38755 5.17292C3.28959 5.46677 3.25559 5.77801 3.28835 6.08643L5.27716 5.87524C5.27472 5.85227 5.27714 5.82869 5.2849 5.80541L3.38755 5.17292ZM3.28835 6.08643C3.32109 6.39481 3.41963 6.69162 3.57607 6.9581L5.30084 5.9456C5.2871 5.92219 5.27961 5.89824 5.27716 5.87524L3.28835 6.08643ZM3.58208 6.96821L5.14483 9.55996L6.85756 8.52723L5.29482 5.93549L3.58208 6.96821ZM5.15488 9.57628C5.46485 10.0688 5.95516 10.4156 6.51369 10.5552L6.99873 8.61491C6.92686 8.59694 6.87541 8.55525 6.84751 8.51091L5.15488 9.57628ZM6.51369 10.5552C7.07167 10.6947 7.66511 10.6196 8.17053 10.3419L7.20738 8.5891C7.14699 8.62228 7.07114 8.63301 6.99873 8.61491L6.51369 10.5552ZM7.68896 10.4655H7.75146V8.46551H7.68896V10.4655ZM8.21695 10.3506L8.90456 9.98892L7.97359 8.21881L7.28598 8.58045L8.21695 10.3506ZM8.95134 9.9627C9.77317 9.47249 10.5507 8.91559 11.2756 8.29785L9.97826 6.77568C9.33923 7.3203 8.65297 7.81191 7.92681 8.24504L8.95134 9.9627ZM11.28 8.29404C11.164 8.39405 11.0202 8.44468 10.8769 8.44468V6.44468C10.5491 6.44468 10.2273 6.56087 9.97381 6.77949L11.28 8.29404ZM10.8769 8.44468C10.7337 8.44468 10.5899 8.39405 10.4739 8.29404L11.7801 6.77949C11.5266 6.56087 11.2047 6.44468 10.8769 6.44468V8.44468ZM10.4792 8.29857C10.4116 8.24108 10.3549 8.16815 10.3151 8.0832L12.1264 7.2352C12.0429 7.05673 11.9222 6.90033 11.7748 6.77496L10.4792 8.29857ZM10.3151 8.0832C10.2753 7.99813 10.254 7.90419 10.254 7.808H12.254C12.254 7.60919 12.21 7.41381 12.1264 7.2352L10.3151 8.0832ZM10.254 7.808C10.254 7.7118 10.2753 7.61786 10.3151 7.53279L12.1264 8.38079C12.21 8.20219 12.254 8.0068 12.254 7.808H10.254ZM10.3151 7.53279C10.3549 7.44784 10.4116 7.37492 10.4792 7.31742L11.7748 8.84103C11.9222 8.71566 12.0429 8.55926 12.1264 8.38079L10.3151 7.53279ZM10.4691 7.32613C9.79537 7.91469 9.06863 8.44504 8.29723 8.91083L9.33103 10.6229C10.2017 10.0972 11.0228 9.49807 11.7849 8.83232L10.4691 7.32613ZM8.34864 8.88182L7.66104 9.24345L8.59201 11.0136L9.27961 10.6519L8.34864 8.88182ZM7.64864 9.25009C7.50814 9.32652 7.34731 9.36843 7.18163 9.36963L7.19613 11.3696C7.68783 11.366 8.17234 11.242 8.6044 11.0069L7.64864 9.25009ZM7.18025 9.36964C6.99618 9.37123 6.81689 9.32553 6.66112 9.2397L5.69596 10.9914C6.15522 11.2445 6.67325 11.3741 7.19751 11.3696L7.18025 9.36964ZM6.66112 9.2397C6.50557 9.154 6.38102 9.03258 6.29659 8.89155L4.58063 9.91891C4.85034 10.3694 5.23649 10.7382 5.69596 10.9914L6.66112 9.2397ZM6.29863 8.89497L4.73589 6.26104L3.01585 7.28156L4.57859 9.91549L6.29863 8.89497ZM3.2251 6.01202C1.72523 7.29753 0.470057 8.85751 -0.27397 10.7645C-1.02088 12.6789 -1.2289 14.8829 -0.722051 17.4108L1.23892 17.0176C0.799997 14.8285 0.994224 13.0165 1.58924 11.4915C2.18714 9.95898 3.21357 8.65599 4.52663 7.53058L3.2251 6.01202ZM-0.717699 17.4314C-0.64695 17.7494 -0.465163 18.0258 -0.213306 18.2176L0.998609 16.6266C1.11355 16.7142 1.20042 16.8435 1.23457 16.997L-0.717699 17.4314ZM-0.213306 18.2176C0.0378207 18.4089 0.344878 18.5063 0.654942 18.4997L0.612042 16.5001C0.747669 16.4972 0.884393 16.5396 0.998609 16.6266L-0.213306 18.2176ZM0.633492 18.4999H2.28812V16.4999H0.633492V18.4999ZM2.29279 18.4999C2.61822 18.4984 2.93733 18.3824 3.18906 18.1654L1.88343 16.6504C1.99859 16.5512 2.14119 16.5006 2.28346 16.4999L2.29279 18.4999ZM3.18906 18.1654C3.44168 17.9477 3.61001 17.6417 3.65147 17.3014L1.66614 17.0595C1.68623 16.8947 1.76737 16.7504 1.88343 16.6504L3.18906 18.1654ZM3.64029 17.372C3.70168 17.0575 3.87656 16.7658 4.14441 16.5516L2.89531 14.9896C2.26579 15.493 1.83154 16.1987 1.67732 16.9889L3.64029 17.372ZM4.14441 16.5516C4.413 16.3368 4.75654 16.2154 5.11606 16.2154V14.2154C4.30975 14.2154 3.52408 14.4868 2.89531 14.9896L4.14441 16.5516ZM5.11606 16.2154C5.47558 16.2154 5.81912 16.3368 6.08771 16.5516L7.33681 14.9896C6.70803 14.4868 5.92237 14.2154 5.11606 14.2154V16.2154ZM6.08771 16.5516C6.35556 16.7658 6.53044 17.0575 6.59183 17.372L8.55479 16.9889C8.40058 16.1987 7.96632 15.493 7.33681 14.9896L6.08771 16.5516ZM6.58591 17.3387C6.63757 17.661 6.80313 17.9485 7.04448 18.1552L8.34536 16.6361C8.45617 16.731 8.53572 16.8663 8.56071 17.0222L6.58591 17.3387ZM7.04448 18.1552C7.28509 18.3612 7.58699 18.4756 7.89718 18.4861L7.96455 16.4872C8.10027 16.4918 8.23528 16.5418 8.34536 16.6361L7.04448 18.1552ZM7.93087 18.4867H9.56862V16.4867H7.93087V18.4867ZM9.60604 18.486C9.91612 18.4743 10.2175 18.3589 10.4574 18.152L9.15093 16.6376C9.26069 16.5429 9.39553 16.4924 9.53121 16.4874L9.60604 18.486ZM10.4574 18.152C10.698 17.9444 10.8624 17.6563 10.9129 17.3339L8.93696 17.0246C8.96138 16.8686 9.04043 16.733 9.15093 16.6376L10.4574 18.152ZM10.9061 17.3722C10.9679 17.058 11.1429 16.7668 11.4107 16.553L10.1626 14.9901C9.5334 15.4926 9.09887 16.1972 8.94371 16.9863L10.9061 17.3722ZM11.4107 16.553C11.6792 16.3385 12.0224 16.2174 12.3816 16.2174V14.2174C11.576 14.2174 10.7911 14.4882 10.1626 14.9901L11.4107 16.553ZM12.3816 16.2174C12.7407 16.2174 13.0839 16.3385 13.3524 16.553L14.6005 14.9901C13.972 14.4882 13.1871 14.2174 12.3816 14.2174V16.2174ZM13.3524 16.553C13.6202 16.7668 13.7952 17.058 13.857 17.3722L15.8194 16.9863C15.6642 16.1972 15.2297 15.4926 14.6005 14.9901L13.3524 16.553ZM13.8531 17.3513C13.9086 17.6692 14.075 17.9517 14.3149 18.1546L15.6065 16.6276C15.7166 16.7207 15.7964 16.8535 15.8233 17.0073L13.8531 17.3513ZM14.3149 18.1546C14.5541 18.3569 14.8528 18.4693 15.1597 18.48L15.2293 16.4812C15.3636 16.4859 15.4971 16.5351 15.6065 16.6276L14.3149 18.1546ZM15.1945 18.4806H16.8197V16.4806H15.1945V18.4806ZM16.8509 18.4801C17.186 18.4697 17.5113 18.3379 17.7601 18.1013L16.3819 16.652C16.4963 16.5432 16.6421 16.4857 16.7886 16.4811L16.8509 18.4801ZM17.7601 18.1013C18.0099 17.8638 18.1642 17.537 18.1811 17.1837L16.1834 17.088C16.1917 16.9165 16.2665 16.7617 16.3819 16.652L17.7601 18.1013ZM18.1819 17.1639C18.2431 14.9792 18.8019 12.8965 20.1779 11.9257L19.0249 10.2914C16.8129 11.8521 16.2465 14.8323 16.1827 17.1078L18.1819 17.1639ZM20.1848 11.9208C23.3814 9.62483 24.7417 7.35039 24.9664 5.301C25.1901 3.2618 24.2619 1.68319 23.3787 0.842833L22.0001 2.2918C22.5296 2.79554 23.1204 3.78757 22.9784 5.08298C22.8374 6.3682 21.9474 8.19234 19.0181 10.2963L20.1848 11.9208ZM21.9001 2.18133L21.902 2.18374L23.4806 0.955714L23.4787 0.953303L21.9001 2.18133ZM16.8558 7.29016L15.6681 6.7477L14.8372 8.56693L16.0249 9.10938L16.8558 7.29016ZM16.2506 7.59416C16.2541 7.64922 16.2424 7.70268 16.219 7.74857L14.4378 6.83889C14.2992 7.11035 14.2353 7.41444 14.2546 7.72046L16.2506 7.59416ZM16.219 7.74857C16.1957 7.79417 16.1628 7.82866 16.1274 7.85177L15.0348 6.17654C14.7834 6.34051 14.5763 6.56773 14.4378 6.83889L16.219 7.74857ZM16.1274 7.85177C16.0921 7.87474 16.0543 7.88669 16.0177 7.88939L15.8709 5.89478C15.5743 5.91661 15.2861 6.01271 15.0348 6.17654L16.1274 7.85177ZM16.0177 7.88939C15.981 7.89208 15.9432 7.88574 15.907 7.86923L16.7379 6.05C16.4661 5.92585 16.1675 5.87296 15.8709 5.89478L16.0177 7.88939ZM15.907 7.86923C15.8707 7.85264 15.835 7.82517 15.8065 7.78579L17.4259 6.61218C17.248 6.3667 17.0099 6.17423 16.7379 6.05L15.907 7.86923ZM15.8065 7.78579C15.7777 7.74613 15.758 7.69662 15.7528 7.64187L17.7438 7.45268C17.7149 7.14754 17.6041 6.85795 17.4259 6.61218L15.8065 7.78579ZM15.7528 7.64187C15.7476 7.58704 15.7576 7.53302 15.7798 7.48601L17.5884 8.33981C17.7186 8.06396 17.7729 7.75789 17.7438 7.45268L15.7528 7.64187ZM15.7798 7.48601C15.8018 7.43929 15.834 7.4034 15.8691 7.37894L17.0115 9.0206C17.2581 8.84901 17.4583 8.61538 17.5884 8.33981L15.7798 7.48601Z" fill="white" mask="url(#path-1-inside-1_319_133)"/>
</svg>
