<svg width="24" height="24" viewBox="0 0 24 24" fill="none" xmlns="http://www.w3.org/2000/svg">
<g clip-path="url(#clip0_35_317)">
<path d="M4.23711 0.000995616C3.92511 -0.0120044 3.57211 0.0729956 3.40911 0.457996C3.25111 0.831996 3.12611 1.646 3.06911 2.734L4.29211 3.325C4.27211 2.588 4.29911 1.895 4.36811 1.259C4.34211 1.558 4.31211 2.219 4.37411 3.298C4.39311 3.64 4.42311 4.023 4.46211 4.448C4.46411 4.472 4.46411 4.495 4.46911 4.517C4.5506 5.32361 4.65363 6.12789 4.77811 6.929C4.83511 7.297 4.90411 7.68099 4.97311 8.08899L4.96311 8.099C4.97711 8.109 4.97811 8.11699 4.97711 8.12199L5.00711 8.28199C5.03711 8.44399 5.06711 8.60999 5.10011 8.776L5.20811 9.329L5.26411 9.618C5.40461 10.3099 5.55696 10.9993 5.72111 11.686C5.81111 12.068 5.90711 12.466 6.00811 12.872C6.10611 13.258 6.20711 13.655 6.31711 14.065C6.41311 14.427 6.51611 14.8 6.62011 15.182C6.62311 15.2 6.63211 15.218 6.63511 15.237C6.74678 15.6325 6.86011 16.0275 6.97511 16.422L7.02411 16.596C7.10211 16.857 7.18211 17.129 7.26611 17.401C7.16675 17.3598 7.06901 17.3147 6.97311 17.266L6.78311 16.612C6.76311 16.535 6.74111 16.464 6.72111 16.387L6.71911 16.383L6.71511 16.381C6.62811 16.081 6.54511 15.774 6.45811 15.465C6.43511 15.378 6.41411 15.292 6.38911 15.202L6.07511 14.024C5.97511 13.643 5.88111 13.259 5.78511 12.87C5.69111 12.48 5.60011 12.09 5.50811 11.698C5.41511 11.297 5.32711 10.898 5.24311 10.495C5.15811 10.099 5.08211 9.697 5.00311 9.302C4.92817 8.91284 4.85783 8.52281 4.79211 8.132C4.78811 8.119 4.78611 8.10199 4.78211 8.09099L4.78611 8.08899C4.72911 7.70299 4.67011 7.319 4.61211 6.939C4.55678 6.53818 4.50544 6.13683 4.45811 5.735C4.36543 4.93458 4.30804 4.13046 4.28611 3.325L3.06611 2.735C3.06211 2.809 3.05611 2.885 3.05311 2.965C3.04111 3.259 3.03311 3.57 3.03011 3.895C3.02719 4.28067 3.02919 4.66637 3.03611 5.052C3.04511 5.422 3.06111 5.807 3.08111 6.2C3.10111 6.536 3.12311 6.875 3.15111 7.222L3.15311 7.261L3.15911 7.265C3.16211 7.288 3.16611 7.315 3.16511 7.341C3.19811 7.709 3.22911 8.08 3.27211 8.456C3.35104 9.1673 3.45209 9.87598 3.57511 10.581C3.58511 10.645 3.59911 10.712 3.61011 10.776C3.75294 11.5581 3.93551 12.3324 4.15711 13.096C4.22711 13.333 4.29711 13.56 4.36711 13.776C4.43011 13.958 4.49711 14.141 4.56111 14.321C4.71611 14.743 4.88811 15.153 5.07311 15.553L5.07911 15.557C5.08435 15.5742 5.09104 15.5909 5.09911 15.607C5.32411 16.092 5.57411 16.557 5.85411 17.002C5.86411 17.015 5.87411 17.035 5.88411 17.049C5.42911 16.866 4.62511 16.951 4.63111 16.952C5.46111 17.24 6.18811 17.592 6.64711 18.127C6.46411 18.327 6.12411 18.479 5.69411 18.604C6.28811 18.668 6.61811 18.565 6.73911 18.512C6.42911 18.772 6.25611 19.244 6.10411 19.752C6.45411 19.182 6.80011 18.803 7.13711 18.658C7.21511 18.916 7.29911 19.182 7.38111 19.446C6.61376 20.9511 5.87232 22.4694 5.15711 24C5.24901 23.9877 5.33641 23.9527 5.41147 23.8982C5.48652 23.8438 5.54687 23.7715 5.58711 23.688C5.71711 23.406 6.41711 21.913 7.49511 19.813C7.90811 21.116 8.37511 22.492 8.88111 23.922C8.9315 23.857 8.96485 23.7803 8.97812 23.6991C8.99139 23.6179 8.98417 23.5347 8.95711 23.457C8.49481 22.1509 8.05872 20.8356 7.64911 19.512C7.80311 19.213 7.96511 18.9 8.13311 18.58C8.25811 18.62 8.38811 18.674 8.52211 18.735C8.72511 18.921 8.87411 19.226 9.00411 19.575C9.04108 19.1794 8.92113 18.785 8.67011 18.477C10.0051 18.735 11.2171 18.567 11.9571 17.667C12.0246 17.5836 12.0886 17.4976 12.1491 17.409C11.8241 17.713 11.4671 17.813 10.8361 17.682C11.8321 17.401 12.3591 17.065 12.8711 16.462C12.9911 16.317 13.1151 16.159 13.2421 15.982C12.2991 16.704 11.3151 16.804 10.3421 16.475L10.2971 16.457C11.2111 16.477 12.5001 15.983 13.3891 15.268C13.7991 14.938 14.1851 14.538 14.5591 14.058C14.8391 13.699 15.1091 13.298 15.3791 12.842C15.6131 12.449 15.8471 12.018 16.0791 11.549C15.8396 11.6274 15.5908 11.6735 15.3391 11.686L15.1951 11.694C15.1471 11.696 15.1021 11.694 15.0491 11.696C15.9341 11.498 16.5491 10.956 17.0431 10.249C16.8031 10.366 16.4151 10.511 15.9731 10.546C15.9151 10.552 15.8531 10.552 15.7911 10.552C15.7781 10.55 15.7631 10.552 15.7441 10.55C16.0501 10.472 16.3181 10.372 16.5541 10.241C16.6783 10.17 16.7979 10.0912 16.9121 10.005C16.9561 9.968 17.0001 9.935 17.0421 9.899C17.1411 9.81299 17.2351 9.719 17.3221 9.612C17.3501 9.578 17.3781 9.549 17.4021 9.514C17.4381 9.46399 17.4751 9.416 17.5061 9.368C17.692 9.10209 17.8623 8.82563 18.0161 8.54C18.0311 8.509 18.0481 8.483 18.0621 8.45199C18.1021 8.368 18.1421 8.292 18.1721 8.225C18.2141 8.126 18.2461 8.046 18.2641 7.987C18.2302 8.00813 18.194 8.02524 18.1561 8.038C17.8831 8.15 17.4291 8.225 17.0701 8.239C17.0661 8.239 17.0621 8.239 17.0571 8.243H16.9901C17.7101 8.029 18.0571 7.793 18.4121 7.425C18.8279 6.97498 19.2134 6.49794 19.5661 5.997C19.8301 5.627 20.0711 5.259 20.2581 4.925C20.3674 4.73286 20.4669 4.53527 20.5561 4.333C20.6221 4.176 20.6781 4.028 20.7281 3.883C20.2621 3.893 19.7421 3.894 19.2481 3.883C19.7431 3.893 20.2631 3.89 20.7321 3.878C21.2321 2.393 20.7951 1.616 20.7951 1.616C20.7951 1.616 20.2691 0.403996 19.3951 0.764996C18.9691 0.939996 18.2231 1.495 17.3121 2.325L17.8261 3.775C18.3576 3.20376 18.9265 2.66857 19.5291 2.173C19.2721 2.393 18.7221 2.899 17.9141 3.817C17.6581 4.107 17.3771 4.441 17.0701 4.814C17.0531 4.834 17.0351 4.852 17.0231 4.874C16.4484 5.58802 15.8929 6.31728 15.3571 7.061C15.1091 7.401 14.8591 7.765 14.5921 8.149H14.5761C14.5781 8.169 14.5721 8.177 14.5661 8.18099L14.4651 8.333C14.3611 8.488 14.2521 8.643 14.1471 8.803L13.7951 9.337C13.7341 9.427 13.6711 9.518 13.6091 9.614C13.4251 9.896 13.2421 10.187 13.0511 10.487C12.5642 11.2596 12.0881 12.039 11.6231 12.825C11.1652 13.5997 10.7182 14.3808 10.2821 15.168C10.2701 15.185 10.2621 15.208 10.2481 15.225C10.024 15.6319 9.80134 16.0395 9.58011 16.448L9.48311 16.629C9.31311 16.947 9.13711 17.271 8.96311 17.608C8.96311 17.612 8.95811 17.616 8.95711 17.621C8.93111 17.669 8.90711 17.714 8.88511 17.762C8.76811 17.984 8.66711 18.186 8.43511 18.632C8.36433 18.563 8.2862 18.502 8.20211 18.45L8.54711 17.8C8.59411 17.711 8.64311 17.623 8.69011 17.53L8.73011 17.453L9.27611 16.452L9.40611 16.219V16.213L9.40511 16.207C9.57411 15.897 9.75011 15.587 9.92511 15.267C9.97611 15.18 10.0271 15.094 10.0781 15.002C10.3021 14.607 10.5321 14.208 10.7621 13.805C11.4475 12.6212 12.1594 11.4529 12.8971 10.301C13.1441 9.915 13.4001 9.531 13.6511 9.149C13.7431 9.011 13.8331 8.877 13.9301 8.739C14.0887 8.5044 14.2488 8.27073 14.4101 8.038C14.4171 8.026 14.4291 8.014 14.4361 8.001H14.4421C14.7021 7.645 14.9591 7.288 15.2151 6.936C15.4931 6.563 15.7691 6.201 16.0451 5.846C16.6067 5.12861 17.1996 4.43628 17.8221 3.771L17.3071 2.325C17.2471 2.382 17.1811 2.441 17.1151 2.503C16.8585 2.74187 16.6058 2.98491 16.3571 3.232C16.0621 3.526 15.7601 3.838 15.4451 4.167C14.8848 4.76503 14.3407 5.37791 13.8131 6.005L13.7831 6.038L13.7851 6.046C13.7681 6.066 13.7521 6.09 13.7311 6.11C13.4651 6.433 13.1931 6.759 12.9301 7.095C12.4284 7.72989 11.9465 8.3802 11.4851 9.045C11.4421 9.105 11.4001 9.17099 11.3581 9.231C10.8516 9.97431 10.3833 10.743 9.95511 11.534C9.82511 11.781 9.69911 12.019 9.58511 12.249C9.48911 12.444 9.39811 12.644 9.30711 12.84C9.09711 13.303 8.90911 13.77 8.74111 14.239L8.74311 14.245C8.73275 14.2635 8.72405 14.2829 8.71711 14.303C8.60911 14.606 8.51411 14.911 8.42711 15.217C8.28711 15.391 8.12511 15.542 7.94411 15.677C7.90192 15.6248 7.85824 15.5737 7.81311 15.524C8.25525 14.8607 8.53733 14.1039 8.63711 13.313C8.68966 12.8181 8.68429 12.3187 8.62111 11.825C8.57511 11.425 8.49511 11.005 8.38311 10.551C8.28611 10.158 8.16611 9.741 8.02011 9.303C7.92911 9.488 7.80011 9.66999 7.64111 9.84799L7.55511 9.942C7.52611 9.974 7.49511 10.002 7.46311 10.036C7.89711 9.362 7.94911 8.639 7.82111 7.888C7.71061 8.19867 7.54458 8.48668 7.33111 8.738C7.29811 8.776 7.25911 8.815 7.22111 8.854C7.21111 8.861 7.20211 8.87199 7.18811 8.882C7.33211 8.642 7.43811 8.415 7.50611 8.184C7.52229 8.13615 7.53565 8.0874 7.54611 8.038C7.56178 7.96353 7.57445 7.88847 7.58411 7.813L7.60211 7.667C7.61136 7.54915 7.61069 7.43073 7.60011 7.313C7.59711 7.273 7.59611 7.237 7.59011 7.2C7.58011 7.145 7.57411 7.095 7.56311 7.046C7.51512 6.76249 7.45068 6.48202 7.37011 6.206C7.36011 6.178 7.35511 6.15 7.34411 6.122C7.31711 6.043 7.29611 5.973 7.27211 5.913C7.24591 5.84175 7.21587 5.77198 7.18211 5.704C7.17438 5.73858 7.16263 5.77214 7.14711 5.804C7.04511 6.044 6.80711 6.374 6.59011 6.604C6.58711 6.607 6.58311 6.609 6.58311 6.614L6.54311 6.657C6.86111 6.077 6.93311 5.711 6.92811 5.259C6.91047 4.71772 6.85702 4.17821 6.76811 3.644C6.71028 3.27217 6.63284 2.90365 6.53611 2.54C6.48547 2.35111 6.4254 2.16487 6.35611 1.982C6.30319 1.84977 6.24582 1.71936 6.18411 1.591C6.18478 1.58966 6.18545 1.58833 6.18611 1.587C5.57611 0.340996 4.82011 0.123996 4.82011 0.123996C4.82011 0.123996 4.54911 0.0139956 4.23711 0.000995616ZM7.61711 15.784L7.64911 15.866V15.868C7.58911 15.901 7.53311 15.935 7.47111 15.965C7.45911 15.969 7.44711 15.977 7.43211 15.983C7.49784 15.9199 7.55994 15.8531 7.61811 15.783L7.61711 15.784ZM7.01411 17.41C7.14411 17.546 7.26411 17.652 7.36811 17.73L7.43811 17.957C7.35501 17.9691 7.27283 17.9868 7.19211 18.01L7.16211 17.912C7.13811 17.828 7.11411 17.742 7.08611 17.655L7.06511 17.582L7.01411 17.41ZM7.27411 18.285C7.36456 18.2831 7.45505 18.2864 7.54511 18.295L7.61511 18.524C7.69671 18.5095 7.78009 18.5082 7.86211 18.52L7.53611 19.147C7.44776 18.86 7.36043 18.5726 7.27411 18.285Z" fill="#777070"/>
</g>
<defs>
<clipPath id="clip0_35_317">
<rect width="24" height="24" fill="white"/>
</clipPath>
</defs>
</svg>
